<?xml version="1.0" encoding="UTF-8" standalone="no"?>
<svg
   xmlns:dc="http://purl.org/dc/elements/1.1/"
   xmlns:cc="http://creativecommons.org/ns#"
   xmlns:rdf="http://www.w3.org/1999/02/22-rdf-syntax-ns#"
   xmlns:svg="http://www.w3.org/2000/svg"
   xmlns="http://www.w3.org/2000/svg"
   xmlns:sodipodi="http://sodipodi.sourceforge.net/DTD/sodipodi-0.dtd"
   xmlns:inkscape="http://www.inkscape.org/namespaces/inkscape"
   viewBox="0 0 153 78.03"
   fill="none"
   version="1.1"
   id="svg12">
  <path
     d="M 153,28.375658 H 111.27273 V 49.655454 H 153 V 28.376771 Z"
     fill="#188038"
     id="path2" />
  <path
     d="M 38.25,78.03 C 17.212778,78.03 0,60.47338 0,39.015556 0,17.557724 17.212778,0 38.25,0 59.287222,0 76.5,17.557724 76.5,39.015556 76.5,60.47338 59.287222,78.03 38.25,78.03 Z m 0,-56.749091 c -9.562778,0.0011 -17.386364,7.98048 -17.386364,17.734647 0,9.754168 7.823586,17.734648 17.386364,17.734648 9.562778,0 17.386364,-7.98048 17.386364,-17.734648 0,-9.754167 -7.823586,-17.734647 -17.386364,-17.734647 z"
     fill="#4285f4"
     id="path4" />
  <path
     d="M 139.09091,49.656567 H 111.27273 V 70.93748 h 13.90909 v -7.09475 c 0,-3.90122 3.12899,-7.092526 6.95454,-7.092526 3.82556,0 6.95455,3.191306 6.95455,7.092526 v 7.09475 H 153 V 49.655454 h -13.90909 z"
     fill="#34a853"
     id="path6" />
  <path
     d="m 75.109091,28.375658 h -22.95 c 2.086363,3.014378 3.477273,6.56064 3.477273,10.639898 0,4.079258 -1.39091,7.62552 -3.477273,10.641011 h 22.95 C 75.978131,46.286116 76.5,42.739854 76.5,39.015556 c 0,-3.724298 -0.521869,-7.27056 -1.390909,-10.64101 z"
     fill="#ea4335"
     id="path8" />
  <path
     d="M 111.27273,28.375658 H 75.109091 c 0.86904,3.369338 1.390909,6.9156 1.390909,10.639898 0,3.724298 -0.521869,7.27056 -1.390909,10.641011 H 111.27273 V 28.373433 Z"
     fill="#fbbc04"
     id="path10" />
</svg>
